<svg xmlns="http://www.w3.org/2000/svg" width="96" height="96" viewBox="0 0 96 96" fill="none">
  <path fill-rule="evenodd" clip-rule="evenodd" d="M48 17.5C32.2584 17.5 19.5 30.2584 19.5 46C19.5 49.6955 19.9665 52.6648 21.4318 57.5524C21.4356 57.5644 21.4405 57.5798 21.4462 57.5981C21.4581 57.6364 21.4738 57.6888 21.4912 57.7509C21.5243 57.8694 21.57 58.0476 21.6027 58.241C21.6282 58.3914 21.6789 58.7256 21.6169 59.0807C21.5859 59.2578 21.4975 59.6224 21.1919 59.9502C20.8253 60.3435 20.3305 60.4908 19.8831 60.4554C12.3987 59.8849 6.5 53.6294 6.5 46C6.5 38.3695 12.4004 32.1133 19.8863 31.5443L19.9016 31.7456C25.1033 21.5111 35.7321 14.5 48 14.5C55.8104 14.5 62.9737 17.3462 68.476 22.061L66.524 24.339C61.5463 20.0738 55.0696 17.5 48 17.5ZM18.564 34.7604C13.3849 35.8774 9.5 40.488 9.5 46C9.5 51.3784 13.199 55.8986 18.1898 57.1523C16.9448 52.7599 16.5 49.7108 16.5 46C16.5 42.0402 17.2304 38.2512 18.564 34.7604ZM76.3491 32.2542C78.3663 36.4043 79.5 41.0781 79.5 46C79.5 60.9472 68.6188 72.6704 54.8484 75.959L54.1516 73.041C66.7612 70.0296 76.5 59.3728 76.5 46C76.5 41.5419 75.4737 37.3157 73.6509 33.5658L76.3491 32.2542Z" fill="#005AA0"/>
  <path fill-rule="evenodd" clip-rule="evenodd" d="M72.772 31.6674C73.5005 31.5554 74.2469 31.5 75.0001 31.5C83.0085 31.5 89.5001 37.9916 89.5001 46C89.5001 54.0084 83.0085 60.5 75.0001 60.5V57.5C81.3516 57.5 86.5001 52.3516 86.5001 46C86.5001 39.6484 81.3516 34.5 75.0001 34.5C74.3933 34.5 73.7996 34.5446 73.2281 34.6326L72.772 31.6674Z" fill="#005AA0"/>
  <path fill-rule="evenodd" clip-rule="evenodd" d="M59.1531 53.959C56.5005 57.1466 52.4846 59.1895 48.0001 59.1895C43.5178 59.1895 39.5002 57.1583 36.8455 53.957L39.1547 52.042C41.26 54.5807 44.4423 56.1895 48.0001 56.1895C51.5556 56.1895 54.7397 54.5724 56.8471 52.04L59.1531 53.959Z" fill="#E30613"/>
  <path fill-rule="evenodd" clip-rule="evenodd" d="M48 69.5C45.5147 69.5 43.5 71.5147 43.5 74C43.5 76.4853 45.5147 78.5 48 78.5C50.4853 78.5 52.5 76.4853 52.5 74C52.5 71.5147 50.4853 69.5 48 69.5ZM40.5 74C40.5 69.8579 43.8579 66.5 48 66.5C52.1421 66.5 55.5 69.8579 55.5 74C55.5 78.1421 52.1421 81.5 48 81.5C43.8579 81.5 40.5 78.1421 40.5 74Z" fill="#005AA0"/>
  <path fill-rule="evenodd" clip-rule="evenodd" d="M39.2429 30.8187C37.1407 29.0378 35.5679 27.1003 34.7388 25.8124L37.2612 24.1885C37.9321 25.2306 39.3093 26.9431 41.1821 28.5297C43.0577 30.1186 45.3381 31.5031 47.8143 32.0337C49.4067 32.3749 51.8097 32.5319 54.6296 32.5552C57.4228 32.5783 60.5299 32.4705 63.4837 32.315C66.4349 32.1597 69.2181 31.9576 71.3624 31.7939C71.816 31.7592 72.2473 31.7257 72.6491 31.6945C74.0875 31.5828 75.1473 31.5004 75.5 31.5004V34.5004C75.2742 34.5004 74.4246 34.5662 73.0654 34.6715C72.6259 34.7056 72.133 34.7437 71.5908 34.7851C69.4381 34.9495 66.6276 35.1537 63.6413 35.3109C60.6576 35.4679 57.4834 35.5789 54.6048 35.5551C51.7529 35.5315 49.0934 35.3759 47.1857 34.9671C44.0619 34.2978 41.3423 32.5972 39.2429 30.8187Z" fill="#005AA0"/>
</svg>
