<svg width="96" height="96" viewBox="0 0 96 96" fill="none" xmlns="http://www.w3.org/2000/svg">
    <path fill-rule="evenodd" clip-rule="evenodd"
        d="M48 13.5C28.9462 13.5 13.5 28.9462 13.5 48C13.5 67.0538 28.9462 82.5 48 82.5C67.0538 82.5 82.5 67.0538 82.5 48C82.5 28.9462 67.0538 13.5 48 13.5ZM10.5 48C10.5 27.2893 27.2893 10.5 48 10.5C68.7107 10.5 85.5 27.2893 85.5 48C85.5 68.7107 68.7107 85.5 48 85.5C27.2893 85.5 10.5 68.7107 10.5 48Z"
        fill="#005AA0" />
    <path fill-rule="evenodd" clip-rule="evenodd"
        d="M36.9177 19.1706C37.9177 18.7321 38.9447 18.3402 39.9957 17.998L41 20.8302C40.0498 21.1395 39.1213 21.4938 38.217 21.8904C37.4668 22.2194 36.7334 22.5776 36.0183 22.9634C34.6897 23.6801 33.4243 24.4923 32.2323 25.3903C30.8985 26.395 29.6568 27.5071 28.5213 28.7129C26.9076 30.4265 25.5089 32.329 24.3656 34.3811C23.38 36.1504 22.5842 38.031 22.0041 39.998L19 39.1847C19.6417 37.0086 20.522 34.9287 21.6117 32.9726C22.8756 30.7039 24.4212 28.6018 26.2037 26.7091C27.4579 25.3772 28.8295 24.1488 30.3029 23.0388C31.6197 22.0469 33.018 21.1493 34.4867 20.357C35.2772 19.9305 36.0882 19.5345 36.9177 19.1706Z"
        fill="#E30613" />
    <path fill-rule="evenodd" clip-rule="evenodd"
        d="M66.8789 39.0108L44.281 61.8789L30.8789 48.4837L32.953 46.3387L44.2681 57.648L64.7917 36.8789L66.8789 39.0108Z"
        fill="#005AA0" />
</svg>