<svg xmlns="http://www.w3.org/2000/svg" width="96" height="96" viewBox="0 0 96 96" fill="none">
  <path fill-rule="evenodd" clip-rule="evenodd" d="M74 3L74 11L71 11L71 3L74 3Z" fill="#005AA0"/>
  <path fill-rule="evenodd" clip-rule="evenodd" d="M85.9999 7.99953L81.9999 14.9277L79.4019 13.4277L83.4019 6.49953L85.9999 7.99953Z" fill="#005AA0"/>
  <path fill-rule="evenodd" clip-rule="evenodd" d="M93.9282 18.0004L87 22.0004L85.5 19.4023L92.4282 15.4023L93.9282 18.0004Z" fill="#005AA0"/>
  <path fill-rule="evenodd" clip-rule="evenodd" d="M46.8142 31.6799C46.8149 31.6805 46.8155 31.6812 46.8162 31.6819L48 32.8608L49.1838 31.6819C49.1847 31.681 49.1856 31.6801 49.1865 31.6792C52.7773 28.106 58.7175 28.1069 62.3071 31.6819C65.8976 35.2577 65.8976 41.1756 62.3071 44.7515L48 59L33.6929 44.7515C30.1024 41.1756 30.1024 35.2577 33.6929 31.6819C37.2828 28.1067 43.2235 28.106 46.8142 31.6799ZM48 54.7747L60.1858 42.6388C62.6047 40.2298 62.6047 36.2036 60.1858 33.7945C57.7668 31.3855 53.7241 31.3855 51.3051 33.7945L48 37.0861L44.6949 33.7945C42.2759 31.3855 38.2332 31.3855 35.8142 33.7945C33.3953 36.2036 33.3953 40.2298 35.8142 42.6388L48 54.7747Z" fill="#E30613"/>
  <path fill-rule="evenodd" clip-rule="evenodd" d="M6.5 40C6.5 24.8116 18.8116 12.5 34 12.5H62C77.1884 12.5 89.5 24.8116 89.5 40V43C89.5 58.1884 77.1884 70.5 62 70.5H55V67.5H62C75.5316 67.5 86.5 56.5316 86.5 43V40C86.5 26.4684 75.5316 15.5 62 15.5H34C20.4684 15.5 9.5 26.4684 9.5 40V43C9.5 56.5316 20.4684 67.5 34 67.5H37.75L47.5 80.5V68H50.5V89.5L36.25 70.5H34C18.8116 70.5 6.5 58.1884 6.5 43V40Z" fill="#005AA0"/>
</svg>
