<svg xmlns="http://www.w3.org/2000/svg" width="96" height="96" viewBox="0 0 96 96" fill="none">
  <path fill-rule="evenodd" clip-rule="evenodd" d="M48 13.5C28.9462 13.5 13.5 28.9462 13.5 48C13.5 67.0538 28.9462 82.5 48 82.5C67.0538 82.5 82.5 67.0538 82.5 48C82.5 28.9462 67.0538 13.5 48 13.5ZM10.5 48C10.5 27.2893 27.2893 10.5 48 10.5C68.7107 10.5 85.5 27.2893 85.5 48C85.5 68.7107 68.7107 85.5 48 85.5C27.2893 85.5 10.5 68.7107 10.5 48Z" fill="#005AA0"/>
  <path fill-rule="evenodd" clip-rule="evenodd" d="M60.065 75.7221C59.0646 76.2001 58.0371 76.6271 56.9857 77L56 73.9079C56.9522 73.5702 57.8827 73.1835 58.7888 72.7506C59.5405 72.3914 60.2754 72.0005 60.9919 71.5794C62.3231 70.7971 63.5907 69.9108 64.7847 68.931C66.1207 67.8346 67.3644 66.6214 68.5014 65.3061C70.1174 63.4368 71.5178 61.3618 72.6622 59.1241C73.6489 57.1948 74.4454 55.1444 75.0259 53L78 53.8957C77.3572 56.27 76.4756 58.539 75.3844 60.6728C74.1188 63.1475 72.5712 65.4401 70.7869 67.5041C69.5314 68.9564 68.1585 70.2957 66.6839 71.5058C65.3661 72.5872 63.9668 73.5655 62.4973 74.4291C61.7063 74.894 60.895 75.3256 60.065 75.7221Z" fill="#E30613"/>
  <path fill-rule="evenodd" clip-rule="evenodd" d="M59.8644 61.4761L35.6118 37.4761L37.722 35.3438L61.9746 59.3438L59.8644 61.4761Z" fill="#005AA0"/>
  <path fill-rule="evenodd" clip-rule="evenodd" d="M35.6118 59.3438L59.8644 35.3438L61.9746 37.4761L37.722 61.4761L35.6118 59.3438Z" fill="#005AA0"/>
</svg>
