<svg xmlns="http://www.w3.org/2000/svg" width="96" height="96" viewBox="0 0 96 96" fill="none">
  <path fill-rule="evenodd" clip-rule="evenodd" d="M63.8417 49.6953C68.9155 44.4251 68.9155 35.8692 63.8408 30.6001C58.766 25.3299 50.527 25.3299 45.453 30.6001C40.3779 35.8692 40.3787 44.426 45.453 49.6953C50.5278 54.9653 58.7669 54.9644 63.8417 49.6953Z" stroke="#005AA0" stroke-width="3"/>
  <path fill-rule="evenodd" clip-rule="evenodd" d="M45.7076 50.7082L41.7076 54.7082L39.5863 52.5869L43.5863 48.5869L45.7076 50.7082Z" fill="#005AA0"/>
  <path fill-rule="evenodd" clip-rule="evenodd" d="M39.0607 57.0608L29.0607 67.0608L26.9393 64.9395L36.9393 54.9395L39.0607 57.0608Z" fill="#E30613"/>
  <path fill-rule="evenodd" clip-rule="evenodd" d="M10.5 48.0001C10.5 27.3029 27.3033 10.5 47.9995 10.5C68.6967 10.5 85.5 27.3029 85.5 48.0001C85.5 68.6974 68.6967 85.5 47.9995 85.5C27.3033 85.5 10.5 68.6974 10.5 48.0001ZM47.9995 13.5C28.9601 13.5 13.5 28.9598 13.5 48.0001C13.5 67.0405 28.9601 82.5 47.9995 82.5C67.0399 82.5 82.5 67.0405 82.5 48.0001C82.5 28.9598 67.0399 13.5 47.9995 13.5Z" fill="#005AA0"/>
  <circle cx="55" cy="40" r="15" fill="#005AA0"/>
  <circle cx="55" cy="40" r="12" fill="white"/>
  <path fill-rule="evenodd" clip-rule="evenodd" d="M59 44.6759C61.3445 42.2003 61.3443 38.1154 59.0001 35.6408L61.436 33.6582C64.8547 37.2671 64.8545 43.0487 61.4361 46.6582L59 44.6759Z" fill="#E30613"/>
</svg>
