<svg xmlns="http://www.w3.org/2000/svg" width="96" height="96" viewBox="0 0 96 96" fill="none">
  <path fill-rule="evenodd" clip-rule="evenodd" d="M49.5 21V30H46.5V21H49.5Z" fill="#005AA0"/>
  <path fill-rule="evenodd" clip-rule="evenodd" d="M13 69V45H16V69H13Z" fill="#005AA0"/>
  <path fill-rule="evenodd" clip-rule="evenodd" d="M7 65L7 49L10 49L10 65L7 65Z" fill="#005AA0"/>
  <path fill-rule="evenodd" clip-rule="evenodd" d="M86 65L86 49L89 49L89 65L86 65Z" fill="#005AA0"/>
  <path fill-rule="evenodd" clip-rule="evenodd" d="M80 69V45H83V69H80Z" fill="#005AA0"/>
  <path fill-rule="evenodd" clip-rule="evenodd" d="M47.9994 23C43.5828 23 40 19.4157 40 14.9996C40 10.5824 43.5835 7 47.9994 7C52.4144 7 56 10.5815 56 14.9996C56 19.4166 52.4152 23 47.9994 23ZM47.9994 20C45.2402 20 43 17.7594 43 14.9996C43 12.2395 45.2402 10 47.9994 10C50.7587 10 53 12.2395 53 14.9996C53 17.7594 50.7587 20 47.9994 20Z" fill="#E30613"/>
  <path fill-rule="evenodd" clip-rule="evenodd" d="M59.9996 45C63.8657 45 67 48.1354 67 52H64C64 49.7921 62.2086 48 59.9996 48C57.7905 48 56 49.7921 56 52H53C53 48.1362 56.1327 45 59.9996 45Z" fill="#005AA0"/>
  <path fill-rule="evenodd" clip-rule="evenodd" d="M35 45C38.8668 45 42 48.1359 42 52H39C39 49.7921 37.2093 48 35 48C32.7907 48 31 49.7921 31 52H28C28 48.136 31.1331 45 35 45Z" fill="#005AA0"/>
  <path fill-rule="evenodd" clip-rule="evenodd" d="M30 28H66C72.0751 28 77 32.9249 77 39V73C77 79.0751 72.0751 84 66 84H30C23.9249 84 19 79.0751 19 73V39C19 32.9249 23.9249 28 30 28ZM30 31C25.5817 31 22 34.5817 22 39V73C22 77.4183 25.5817 81 30 81H66C70.4183 81 74 77.4183 74 73V39C74 34.5817 70.4183 31 66 31H30Z" fill="#005AA0"/>
  <path fill-rule="evenodd" clip-rule="evenodd" d="M48 72C43.5889 72 39.3796 74.0108 38.1921 74.7959C34.9131 76.9638 30.4548 76.1262 28.2342 72.9253C26.0135 69.7243 26.8714 65.372 30.1503 63.2041C32.9962 61.3226 39.9652 58 48 58C56.0348 58 63.0038 61.3226 65.8497 63.2041C69.1286 65.372 69.9865 69.7243 67.7659 72.9253C65.5452 76.1262 61.0869 76.9638 57.8079 74.7959C56.6204 74.0108 52.4111 72 48 72Z" fill="#005AA0"/>
  <path fill-rule="evenodd" clip-rule="evenodd" d="M48.0002 69C42.7914 69 37.9711 71.2919 36.4219 72.3119C34.5405 73.5507 31.9825 73.0721 30.7084 71.243C29.4342 69.4139 29.9265 66.9268 31.8078 65.6881C34.3085 64.0415 40.7122 61 48.0002 61C55.2883 61 61.692 64.0415 64.1927 65.6881C66.074 66.9268 66.5663 69.4139 65.2921 71.243C64.018 73.0721 61.46 73.5507 59.5786 72.3119C58.0294 71.2919 53.2091 69 48.0002 69Z" fill="white"/>
  <path fill-rule="evenodd" clip-rule="evenodd" d="M46.0007 70L46.0007 60L49.0007 60L49.0007 70L46.0007 70Z" fill="#005AA0"/>
  <path fill-rule="evenodd" clip-rule="evenodd" d="M55.0007 72L55.0007 61L58.0007 61L58.0007 72L55.0007 72Z" fill="#005AA0"/>
  <path fill-rule="evenodd" clip-rule="evenodd" d="M37.0007 72L37.0007 61L40.0007 61L40.0007 72L37.0007 72Z" fill="#005AA0"/>
</svg>
