<svg xmlns="http://www.w3.org/2000/svg" width="96" height="96" viewBox="0 0 96 96" fill="none">
  <path fill-rule="evenodd" clip-rule="evenodd"
    d="M35.2184 9.87542L19.9806 31.0995L10.7686 17.8572L13.2313 16.144L20.0193 25.9017L32.7815 8.1258L35.2184 9.87542ZM35.2184 33.8754L19.9806 55.0995L10.7686 41.8572L13.2313 40.144L20.0193 49.9017L32.7815 32.1258L35.2184 33.8754Z"
    fill="#005AA0" />
  <path fill-rule="evenodd" clip-rule="evenodd" d="M11 61H33V83H11V61ZM14 64V80H30V64H14Z"
    fill="#E30613" />
  <path fill-rule="evenodd" clip-rule="evenodd" d="M84 22H40V19H84V22Z" fill="#005AA0" />
  <path fill-rule="evenodd" clip-rule="evenodd" d="M84 30H40V27H84V30Z" fill="#005AA0" />
  <path fill-rule="evenodd" clip-rule="evenodd" d="M84 46H40V43H84V46Z" fill="#005AA0" />
  <path fill-rule="evenodd" clip-rule="evenodd" d="M84 54H40V51H84V54Z" fill="#005AA0" />
  <path fill-rule="evenodd" clip-rule="evenodd" d="M84 70H40V67H84V70Z" fill="#005AA0" />
  <path fill-rule="evenodd" clip-rule="evenodd" d="M84 78H40V75H84V78Z" fill="#005AA0" />
</svg>