<svg width="24" height="24" viewBox="0 0 24 24" fill="none" xmlns="http://www.w3.org/2000/svg">
    <g clip-path="url(#clip0_9132_754)">
        <path fill-rule="evenodd" clip-rule="evenodd"
            d="M2 12C2 6.47715 6.47715 2 12 2C17.5228 2 22 6.47715 22 12C22 17.5228 17.5228 22 12 22C6.47715 22 2 17.5228 2 12ZM20 12C20 7.58172 16.4183 4 12 4C10.1293 4 8.40864 4.64206 7.04626 5.71783L18.2822 16.9537C19.3579 15.5914 20 13.8707 20 12ZM16.8572 18.3572L5.64279 7.14279C4.61227 8.48951 4 10.1733 4 12C4 16.4183 7.58172 20 12 20C13.8267 20 15.5105 19.3877 16.8572 18.3572Z"
            fill="#FF0000" />
    </g>
    <defs>
        <clipPath id="clip0_9132_754">
            <rect width="24" height="24" fill="white" />
        </clipPath>
    </defs>
</svg>