<svg width="24" height="24" viewBox="0 0 24 24" fill="none" xmlns="http://www.w3.org/2000/svg">
    <path fill-rule="evenodd" clip-rule="evenodd"
        d="M3 5.00195C3 3.3451 4.34315 2.00195 6 2.00195H14C15.6569 2.00195 17 3.3451 17 5.00195V7.00195H15V5.00195C15 4.44967 14.5523 4.00195 14 4.00195H6C5.44772 4.00195 5 4.44967 5 5.00195V19.002C5 19.5542 5.44772 20.002 6 20.002H14C14.5523 20.002 15 19.5542 15 19.002V17.002H17V19.002C17 20.6588 15.6569 22.002 14 22.002H6C4.34315 22.002 3 20.6588 3 19.002V5.00195Z"
        fill="#FF0000" />
    <path
        d="M9 13.002C9 13.5542 8.55228 14.002 8 14.002C7.44772 14.002 7 13.5542 7 13.002C7 12.4497 7.44772 12.002 8 12.002C8.55228 12.002 9 12.4497 9 13.002Z"
        fill="#FF0000" />
    <path
        d="M13 13.002C13 13.5542 12.5523 14.002 12 14.002C11.4477 14.002 11 13.5542 11 13.002C11 12.4497 11.4477 12.002 12 12.002C12.5523 12.002 13 12.4497 13 13.002Z"
        fill="#FF0000" />
    <path
        d="M9 17.002C9 17.5542 8.55228 18.002 8 18.002C7.44772 18.002 7 17.5542 7 17.002C7 16.4497 7.44772 16.002 8 16.002C8.55228 16.002 9 16.4497 9 17.002Z"
        fill="#FF0000" />
    <path
        d="M13 17.002C13 17.5542 12.5523 18.002 12 18.002C11.4477 18.002 11 17.5542 11 17.002C11 16.4497 11.4477 16.002 12 16.002C12.5523 16.002 13 16.4497 13 17.002Z"
        fill="#FF0000" />
    <path d="M7 7.00195H13V9.00195H7V7.00195Z" fill="#FF0000" />
    <path d="M17 13.002V15.002H19V13.002H21V11.002H19V9.00195H17V11.002H15V13.002H17Z"
        fill="#FF0000" />
</svg>