<svg width="24" height="24" viewBox="0 0 24 24" fill="none" xmlns="http://www.w3.org/2000/svg">
    <path fill-rule="evenodd" clip-rule="evenodd"
        d="M5.79877 3.01157C5.61916 3.0085 5.46466 3.00586 4.99787 3.00586H3.99788L3.99781 13.0059L8.99782 13.0059V15.0059L15.9975 15.0058L15.9976 14.006C15.9977 13.702 16.0011 13.3836 16.0046 13.0566C16.0135 12.2296 16.023 11.3473 15.98 10.502C15.9194 9.30933 15.7523 8.07019 15.2886 6.94898C14.8152 5.80407 14.0358 4.79189 12.7932 4.08233C11.57 3.38385 9.97382 3.0217 7.92955 3.0217C6.64131 3.0217 6.20099 3.01774 5.94136 3.01389C5.88892 3.01311 5.84308 3.01233 5.79877 3.01157ZM10.9978 13.0059V11.0059L5.99782 11.0059L5.99786 5.01486C6.28306 5.01848 6.76518 5.0217 7.92955 5.0217C9.75283 5.0217 10.9741 5.34669 11.8014 5.81912C12.6094 6.28048 13.1136 6.92301 13.4404 7.71325C13.777 8.52718 13.9267 9.50363 13.9826 10.6036C14.0223 11.384 14.0138 12.1669 14.0051 12.9686C14.005 12.981 14.0049 12.9934 14.0047 13.0058L10.9978 13.0059Z"
        fill="#FF0000" />
    <path fill-rule="evenodd" clip-rule="evenodd"
        d="M10.9967 11.0059H4.89584L2.9967 14.2334V17.0059H4.9967V14.7781L6.03955 13.0059H8.9967V15.0059H17.9967V18.0057H14.9967V20.0057H19.9967V13.0059H10.9967V11.0059Z"
        fill="#FF0000" />
    <path fill-rule="evenodd" clip-rule="evenodd"
        d="M4.9967 20.0059C4.44442 20.0059 3.9967 19.5581 3.9967 19.0059C3.9967 18.4536 4.44442 18.0059 4.9967 18.0059C5.54899 18.0059 5.9967 18.4536 5.9967 19.0059C5.9967 19.5581 5.54899 20.0059 4.9967 20.0059ZM4.9967 22.0059C3.33985 22.0059 1.9967 20.6627 1.9967 19.0059C1.9967 17.349 3.33985 16.0059 4.9967 16.0059C6.65356 16.0059 7.9967 17.349 7.9967 19.0059C7.9967 20.6627 6.65356 22.0059 4.9967 22.0059Z"
        fill="#FF0000" />
    <path fill-rule="evenodd" clip-rule="evenodd"
        d="M13.9967 20.0059C13.4444 20.0059 12.9967 19.5581 12.9967 19.0059C12.9967 18.4536 13.4444 18.0059 13.9967 18.0059C14.549 18.0059 14.9967 18.4536 14.9967 19.0059C14.9967 19.5581 14.549 20.0059 13.9967 20.0059ZM13.9967 22.0059C12.3398 22.0059 10.9967 20.6627 10.9967 19.0059C10.9967 17.349 12.3398 16.0059 13.9967 16.0059C15.6536 16.0059 16.9967 17.349 16.9967 19.0059C16.9967 20.6627 15.6536 22.0059 13.9967 22.0059Z"
        fill="#FF0000" />
    <path fill-rule="evenodd" clip-rule="evenodd"
        d="M19.9967 18.0059L19.9967 2.00586L17.9967 2.00586L17.9967 18.0059L19.9967 18.0059Z"
        fill="#FF0000" />
    <path fill-rule="evenodd" clip-rule="evenodd"
        d="M19.9967 18.0059V15.0059H17.9967V20.0059H21.9967V18.0059H19.9967Z" fill="#FF0000" />
    <path fill-rule="evenodd" clip-rule="evenodd"
        d="M6.9967 20.0059H11.9967V18.0059H6.9967V20.0059Z" fill="#FF0000" />
</svg>