<svg width="24" height="24" viewBox="0 0 24 24" fill="none" xmlns="http://www.w3.org/2000/svg">
    <path
        d="M21 12C21 16.9706 16.9706 21 12 21C7.02944 21 3 16.9706 3 12C3 7.02944 7.02944 3 12 3C16.9706 3 21 7.02944 21 12Z"
        stroke="#FF0000" stroke-width="2" />
    <path
        d="M8.38989 9.22487C8.45239 7.35618 9.72583 6 12.0461 6C14.1868 6 15.6165 7.24579 15.6165 8.98833C15.6165 10.1947 15.0227 11.0384 13.9602 11.677C12.9368 12.2842 12.6477 12.6863 12.6477 13.4669V13.9163H10.8352L10.8274 13.3802C10.7571 12.1974 11.2102 11.4878 12.2883 10.8491C13.2571 10.2578 13.5852 9.83989 13.5852 9.05929C13.5852 8.23928 12.929 7.64792 11.9446 7.64792C10.9368 7.64792 10.2883 8.26293 10.2258 9.22487H8.38989Z"
        fill="#FF0000" />
    <ellipse cx="11.74" cy="16.7386" rx="1.25" ry="1.26156" fill="#FF0000" />
</svg>