<?xml version="1.0" encoding="utf-8"?>
<!-- Generator: Adobe Illustrator 28.2.0, SVG Export Plug-In . SVG Version: 6.00 Build 0)  -->
<svg version="1.1" xmlns="http://www.w3.org/2000/svg"
	xmlns:xlink="http://www.w3.org/1999/xlink" x="0px" y="0px"
	width="24px" height="24px" viewBox="0 0 24 24" style="enable-background:new 0 0 24 24;"
	xml:space="preserve">
<style type="text/css">
		.st0{fill:#FF0000;}
</style>
<g>
	<path class="st0" d="M12,22C6.5,22,2,17.5,2,12S6.5,2,12,2c5.5,0,10,4.5,10,10S17.5,22,12,22z M12,4c-4.4,0-8,3.6-8,8s3.6,8,8,8
		s8-3.6,8-8S16.4,4,12,4z"/>
</g>
<path class="st0" d="M8.4,9.2C8.5,7.4,9.7,6,12,6c2.1,0,3.6,1.2,3.6,3c0,1.2-0.6,2.1-1.7,2.7c-1,0.6-1.3,1-1.3,1.8v0.4h-1.8l0-0.5
	c-0.1-1.2,0.4-1.9,1.5-2.5c1-0.6,1.3-1,1.3-1.8c0-0.8-0.7-1.4-1.6-1.4c-1,0-1.7,0.6-1.7,1.6H8.4z"/>
<ellipse class="st0" cx="11.7" cy="16.7" rx="1.2" ry="1.3"/>
</svg>