<svg xmlns="http://www.w3.org/2000/svg" fill="none" viewBox="0 0 24 25">
    <path fill="#FF0000" fill-rule="evenodd"
        d="M15.504 5.96a6.999 6.999 0 1 0-1.62 12.803l.538 1.926a8.999 8.999 0 1 1 2.082-16.46A8.999 8.999 0 0 1 19.8 16.515l-.639 1.139-1.744-.979.648-1.154a6.999 6.999 0 0 0-2.562-9.56Z"
        clip-rule="evenodd" />
    <path fill="#FF0000" fill-rule="evenodd"
        d="m16.012 13.11 1.932-.518.905 3.38 3.381-.905.518 1.931-5.313 1.424-1.423-5.313Z"
        clip-rule="evenodd" />
    <path stroke="#FF0000" stroke-width="2"
        d="M14.153 19.726a7.999 7.999 0 1 1 4.778-3.705l-.64 1.143" />
    <path stroke="#FF0000" stroke-width="2" d="m16.977 12.85 1.165 4.347 4.347-1.164" />
</svg>