<svg width="24" height="24" viewBox="0 0 24 24" fill="none" xmlns="http://www.w3.org/2000/svg">
    <path fill-rule="evenodd" clip-rule="evenodd"
        d="M6.43167 7.87462H9.99962V9.87462H3.125V3H5.125V6.19185C6.07266 5.07015 7.28606 4.19085 8.66498 3.64072C10.5426 2.89161 12.6178 2.79647 14.5561 3.37062C16.4945 3.94478 18.183 5.15479 19.3498 6.80569C20.5165 8.45658 21.0935 10.4522 20.9877 12.471C20.8819 14.4898 20.0995 16.4142 18.7666 17.9341C17.4337 19.454 15.6279 20.4809 13.6401 20.8493C11.6524 21.2177 9.59855 20.9062 7.80949 19.9649C6.02042 19.0236 4.60035 17.5074 3.7781 15.6607L5.66914 14.8187C6.30227 16.2407 7.39572 17.4082 8.77331 18.133C10.1509 18.8578 11.7324 19.0976 13.2629 18.814C14.7934 18.5303 16.1839 17.7396 17.2103 16.5693C18.2366 15.3989 18.839 13.9172 18.9205 12.3627C19.002 10.8082 18.5577 9.27157 17.6593 8.00038C16.7609 6.72919 15.4607 5.79748 13.9682 5.35538C12.4757 4.91328 10.8778 4.98654 9.43203 5.56335C8.23196 6.04214 7.19468 6.84471 6.43167 7.87462Z"
        fill="#FF0000" />
</svg>