<?xml version="1.0" encoding="utf-8"?>
<svg version="1.1" id="Layer_1" xmlns="http://www.w3.org/2000/svg" xmlns:xlink="http://www.w3.org/1999/xlink" x="0px" y="0px"
	 width="64px" height="64px" viewBox="0 0 64 64" style="enable-background:new 0 0 64 64;" xml:space="preserve">
<style type="text/css">
	.st0{fill:#005AA0;}
	.st1{fill:#E30613;}
</style>
<g>
	<path class="st0" d="M32,56C18.8,56,8,45.2,8,32S18.8,8,32,8s24,10.8,24,24S45.2,56,32,56z M32,10c-12.1,0-22,9.9-22,22
		s9.9,22,22,22s22-9.9,22-22S44.1,10,32,10z"/>
</g>
<g>
	<path class="st1" d="M15.1,27.6l-1.9-0.5c0.4-1.4,0.9-2.7,1.6-4c0.8-1.4,1.7-2.8,2.8-4c0.8-0.9,1.6-1.6,2.5-2.3
		c0.8-0.6,1.7-1.2,2.6-1.7c0.5-0.3,1-0.5,1.5-0.8c0.6-0.3,1.2-0.5,1.9-0.7l0.6,1.9c-0.6,0.2-1.1,0.4-1.7,0.7
		c-0.5,0.2-0.9,0.4-1.3,0.7c-0.8,0.5-1.6,1-2.3,1.5c-0.8,0.6-1.6,1.3-2.3,2.1c-1,1.1-1.8,2.3-2.5,3.6C16,25.2,15.5,26.4,15.1,27.6z"
		/>
</g>
<g>
	<polygon class="st0" points="29.7,40.8 20.9,32.2 22.3,30.8 29.6,37.9 42.9,24.8 44.3,26.2"/>
</g>
</svg>
