<svg width="40" height="40" viewBox="0 0 40 40" fill="none" xmlns="http://www.w3.org/2000/svg">
    <g clip-path="url(#clip0_9132_838)">
        <path fill-rule="evenodd" clip-rule="evenodd"
            d="M38 20C38 29.9411 29.9411 38 20 38C10.0589 38 2 29.9411 2 20C2 10.0589 10.0589 2 20 2C29.9411 2 38 10.0589 38 20ZM30.2696 32.2698C27.4907 34.5982 23.909 36 20 36C11.1634 36 4 28.8366 4 20C4 16.091 5.40183 12.5093 7.73019 9.73043L30.2696 32.2698ZM31.7203 30.8921L9.10792 8.27973C11.9641 5.62415 15.7924 4 20 4C28.8366 4 36 11.1634 36 20C36 24.2076 34.3758 28.0359 31.7203 30.8921Z"
            fill="#FF0000" />
    </g>
    <defs>
        <clipPath id="clip0_9132_838">
            <rect width="40" height="40" fill="white" />
        </clipPath>
    </defs>
</svg>