<?xml version="1.0" encoding="utf-8"?>
<!-- Generator: Adobe Illustrator 28.2.0, SVG Export Plug-In . SVG Version: 6.00 Build 0)  -->
<svg version="1.1" xmlns="http://www.w3.org/2000/svg"
	xmlns:xlink="http://www.w3.org/1999/xlink" x="0px" y="0px"
	width="40px" height="40px" viewBox="0 0 40 40" style="enable-background:new 0 0 40 40;"
	xml:space="preserve">
<style type="text/css">
		.st0{clip-path:url(#SVGID_00000033334193681898111490000006909655272520239233_);}
		.st1{fill-rule:evenodd;clip-rule:evenodd;fill:#FF0000;}
</style>
<g>
	<defs>
		<rect id="SVGID_1_" width="40" height="40"/>
	</defs>
	<clipPath id="SVGID_00000168818390507353925220000016595911163554722999_">
		<use xlink:href="#SVGID_1_"  style="overflow:visible;"/>
	</clipPath>
	<g style="clip-path:url(#SVGID_00000168818390507353925220000016595911163554722999_);">
		<path class="st1" d="M38,20c0,9.9-8.1,18-18,18c-9.9,0-18-8.1-18-18c0-9.9,8.1-18,18-18C29.9,2,38,10.1,38,20z M30.3,32.3
			C27.5,34.6,23.9,36,20,36c-8.8,0-16-7.2-16-16c0-3.9,1.4-7.5,3.7-10.3L30.3,32.3z M31.7,30.9L9.1,8.3C12,5.6,15.8,4,20,4
			c8.8,0,16,7.2,16,16C36,24.2,34.4,28,31.7,30.9z"/>
	</g>
</g>
</svg>