<svg width="40" height="40" viewBox="0 0 40 40" fill="none" xmlns="http://www.w3.org/2000/svg">
    <path fill-rule="evenodd" clip-rule="evenodd"
        d="M8.78049 7.00904C8.194 7.00394 7.70101 6.99967 6.99891 6.99967H5.99891L5.99883 24.0004H13.9999V27.0005L24.9987 27.0004L24.9988 26.0006C24.9989 25.5397 25.0027 25.0616 25.0066 24.5704C25.0335 21.1755 25.0654 17.1546 23.9072 13.8684C23.2296 11.9458 22.1276 10.2075 20.3422 8.96017C18.5596 7.71489 16.1918 7.02614 13.1015 7.02614C11.1426 7.02614 10.0555 7.01953 9.24098 7.01294C9.07855 7.01162 8.92662 7.0103 8.78049 7.00904ZM9.22478 9.01287C10.0448 9.01951 11.1373 9.02614 13.1015 9.02614C15.8958 9.02614 17.8326 9.64669 19.1968 10.5997C20.5581 11.5507 21.4452 12.8997 22.0209 14.5332C23.0526 17.4605 23.0284 21.0844 23.0055 24.5233C23.0044 24.6828 23.0034 24.8419 23.0024 25.0004L15.9999 25.0005V22.0004H7.99884L7.9989 9.00289C8.25109 9.00452 8.49524 9.00664 8.76027 9.00894C8.90707 9.01021 9.06026 9.01154 9.22478 9.01287Z"
        fill="#FF0000" />
    <path fill-rule="evenodd" clip-rule="evenodd"
        d="M16.0085 22H6.58579L4 24.5858V30H6V25.4142L7.41422 24H14.0085V27H27V32H26V34H29V25H16.0085V22Z"
        fill="#FF0000" />
    <path fill-rule="evenodd" clip-rule="evenodd"
        d="M6.5 36C5.11929 36 4 34.8807 4 33.5C4 32.1193 5.11929 31 6.5 31C7.88071 31 9 32.1193 9 33.5C9 34.8807 7.88071 36 6.5 36ZM6.5 38C4.01472 38 2 35.9853 2 33.5C2 31.0147 4.01472 29 6.5 29C8.98528 29 11 31.0147 11 33.5C11 35.9853 8.98528 38 6.5 38Z"
        fill="#FF0000" />
    <path fill-rule="evenodd" clip-rule="evenodd"
        d="M22.5 36C21.1193 36 20 34.8807 20 33.5C20 32.1193 21.1193 31 22.5 31C23.8807 31 25 32.1193 25 33.5C25 34.8807 23.8807 36 22.5 36ZM22.5 38C20.0147 38 18 35.9853 18 33.5C18 31.0147 20.0147 29 22.5 29C24.9853 29 27 31.0147 27 33.5C27 35.9853 24.9853 38 22.5 38Z"
        fill="#FF0000" />
    <path fill-rule="evenodd" clip-rule="evenodd" d="M32 33V27H30V35H38V33H32Z" fill="#FF0000" />
    <path fill-rule="evenodd" clip-rule="evenodd"
        d="M21.3068 21.1076L22.2072 20.2071L20.7928 18.7929L17.7928 21.7933L19.2072 23.2075L19.8852 22.5293L23.2244 26.6317L24.7756 25.3691L21.3068 21.1076Z"
        fill="#FF0000" />
    <path fill-rule="evenodd" clip-rule="evenodd" d="M10 34H19V32H10V34Z" fill="#FF0000" />
    <path fill-rule="evenodd" clip-rule="evenodd" d="M9 27H12V25H9V27Z" fill="#FF0000" />
    <path fill-rule="evenodd" clip-rule="evenodd" d="M30 31L30 2L28 2L28 31H30Z" fill="#FF0000" />
</svg>