<svg width="40" height="40" viewBox="0 0 40 40" fill="none" xmlns="http://www.w3.org/2000/svg">
<path d="M37 20C37 29.3888 29.3888 37 20 37C10.6112 37 3 29.3888 3 20C3 10.6112 10.6112 3 20 3C29.3888 3 37 10.6112 37 20Z" stroke="#FF0000" stroke-width="2"/>
<path d="M14 14.5117C14.1592 11.4123 16.3305 9 20.0651 9C23.5537 9 26 11.2515 26 14.2339C26 16.3977 24.9288 17.9327 22.9457 19.2193C21.0495 20.4474 20.5139 21.2807 20.5139 22.9035V24H18.5887V22.6257C18.5742 20.6813 19.4138 19.4532 21.4548 18.1374C23.2786 16.9386 23.959 15.9298 23.959 14.3216C23.959 12.2456 22.3233 10.7398 19.9928 10.7398C17.6767 10.7398 16.07 12.2018 15.8818 14.5117H14Z" fill="#FF0000"/>
<circle cx="19.6001" cy="29.5" r="1.5" fill="#FF0000"/>
</svg>
