<?xml version="1.0" encoding="utf-8"?>
<!-- Generator: Adobe Illustrator 28.2.0, SVG Export Plug-In . SVG Version: 6.00 Build 0)  -->
<svg version="1.1" xmlns="http://www.w3.org/2000/svg"
	xmlns:xlink="http://www.w3.org/1999/xlink" x="0px" y="0px"
	width="40px" height="40px" viewBox="0 0 40 40" style="enable-background:new 0 0 40 40;"
	xml:space="preserve">
<style type="text/css">
		.st0{fill:#FF0000;}
</style>
<g>
	<path class="st0" d="M20,38c-9.9,0-18-8.1-18-18c0-9.9,8.1-18,18-18s18,8.1,18,18C38,29.9,29.9,38,20,38z M20,4C11.2,4,4,11.2,4,20
		s7.2,16,16,16c8.8,0,16-7.2,16-16S28.8,4,20,4z"/>
</g>
<path class="st0" d="M14,14.5c0.2-3.1,2.3-5.5,6.1-5.5c3.5,0,5.9,2.3,5.9,5.2c0,2.2-1.1,3.7-3.1,5c-1.9,1.2-2.4,2.1-2.4,3.7V24h-1.9
	v-1.4c0-1.9,0.8-3.2,2.9-4.5c1.8-1.2,2.5-2.2,2.5-3.8c0-2.1-1.6-3.6-4-3.6c-2.3,0-3.9,1.5-4.1,3.8H14z"/>
<circle class="st0" cx="19.6" cy="29.5" r="1.5"/>
</svg>