<?xml version="1.0" encoding="utf-8"?>
<!-- Generator: Adobe Illustrator 28.2.0, SVG Export Plug-In . SVG Version: 6.00 Build 0)  -->
<svg version="1.1" xmlns="http://www.w3.org/2000/svg"
	xmlns:xlink="http://www.w3.org/1999/xlink" x="0px" y="0px"
	width="40px" height="40px" viewBox="0 0 40 40" style="enable-background:new 0 0 40 40;"
	xml:space="preserve">
<style type="text/css">
		.st0{fill-rule:evenodd;clip-rule:evenodd;fill:#FF0000;}
</style>
<g>
	<path class="st0" d="M36,17.8l1.4,1.1l1.3-1.5L36,15.2v0h0L20,1.8L4,15.2h0v0l-2.6,2.2l1.3,1.5L4,17.8v7c-0.6,0.9-1,2.1-1,3.3
		c0,1.4,0.5,2.6,1.2,3.6c-0.5,0.3-0.9,0.6-1.2,1c-0.7,0.8-1,1.8-1,2.9v2.5h2v-2.5c0-0.7,0.2-1.2,0.5-1.6c0.3-0.3,0.7-0.6,1.3-0.8
		c0.9,0.6,2,0.9,3.2,0.9s2.3-0.3,3.2-0.9c0.6,0.2,1,0.5,1.3,0.8c0.3,0.4,0.5,0.9,0.5,1.6v2.5h2v-2.5c0-1.1-0.3-2.1-1-2.9
		c-0.3-0.4-0.8-0.7-1.2-1c0.8-1,1.2-2.3,1.2-3.6c0-0.4,0-0.8-0.1-1.2l-0.2-0.8H9.9c-0.5,0-0.7,0-0.8-0.1c-0.1,0-0.3-0.2-0.7-0.9
		l-1.8,0.9c0.4,0.9,1,1.5,1.7,1.8c0.6,0.2,1.2,0.2,1.6,0.2c0.1,0,0.1,0,0.1,0h3c0,2.2-1.8,4-4,4c-2.2,0-4-1.8-4-4c0-2.2,1.8-4,4-4
		c0.9,0,2,0.4,2.8,1.2l1.4-1.4c-1.2-1.2-2.8-1.8-4.2-1.8c-1.1,0-2.1,0.3-3,0.8v-6.8L20,4.5l14,11.7v20h-2v-13H20v13h-2v2h16h2h2v-2
		h-2V17.8z M22,36.2v-11h8v11H22z"/>
	<polygon class="st0" points="25.4,14.9 26.6,13.4 20,7.8 13.4,13.4 14.6,14.9 20,10.5 	"/>
</g>
</svg>