<svg width="40" height="40" viewBox="0 0 40 40" fill="none" xmlns="http://www.w3.org/2000/svg">
    <path d="M6.00017 25.0019V15.0019H4.00017V25.0019H6.00017Z" fill="#FF0000" />
    <path d="M34.0002 15.0019V38.0019H36.0002V15.0019H34.0002Z" fill="#FF0000" />
    <path d="M22.0002 25.0019H30.0002V36.0019H32.0002V23.0019H20.0002V36.0019H22.0002V25.0019Z"
        fill="#FF0000" />
    <path
        d="M25.36 14.7701L26.6404 13.2337L20.0002 7.7002L13.36 13.2337L14.6404 14.7701L20.0002 10.3036L25.36 14.7701Z"
        fill="#FF0000" />
    <path
        d="M20.0002 4.30361L37.36 18.7701L38.6404 17.2337L20.0002 1.7002L1.35999 17.2337L2.64035 18.7701L20.0002 4.30361Z"
        fill="#FF0000" />
    <path d="M18.0002 38.0019H38.0002V36.0019H18.0002V38.0019Z" fill="#FF0000" />
    <path fill-rule="evenodd" clip-rule="evenodd"
        d="M5 28C5 25.7909 6.79086 24 9 24C9.86542 24 10.9838 24.398 11.7929 25.2071L13.2071 23.7929C12.0162 22.602 10.3862 22 9 22C5.68629 22 3 24.6863 3 28C3 29.3629 3.45443 30.6197 4.22005 31.6271C3.74167 31.8968 3.32591 32.2323 2.98509 32.637C2.31115 33.4373 2 34.426 2 35.4999V37.9999H4V35.4999C4 34.8239 4.18885 34.3125 4.51491 33.9253C4.78956 33.5992 5.20926 33.305 5.82616 33.0928C6.7468 33.6677 7.8346 34 9 34C10.1654 34 11.2532 33.6677 12.1738 33.0928C12.7907 33.305 13.2104 33.5992 13.4851 33.9253C13.8112 34.3125 14 34.8239 14 35.4999V37.9999H16V35.4999C16 34.426 15.6888 33.4373 15.0149 32.637C14.6741 32.2323 14.2583 31.8968 13.78 31.6271C14.5456 30.6197 15 29.3629 15 28C15 27.5903 14.9588 27.1893 14.88 26.8011L14.7174 26H10L9.91069 26C9.37926 26.0002 9.22761 26.0002 9.07582 25.9338C8.98148 25.8926 8.74532 25.7546 8.39443 25.0528L6.60557 25.9472C7.05468 26.8454 7.56852 27.4574 8.27418 27.7662C8.84029 28.0138 9.44563 28.0063 9.85166 28.0013C9.90466 28.0006 9.95432 28 10 28H13C13 30.2091 11.2091 32 9 32C6.79086 32 5 30.2091 5 28Z"
        fill="#FF0000" />
</svg>