<svg xmlns="http://www.w3.org/2000/svg" fill="none" height="40" width="40" viewBox="0 0 40 40">
    <path fill="#FF0000" fill-rule="evenodd"
        d="M26.499 8.744c-6.217-3.59-14.166-1.46-17.755 4.757-3.59 6.217-1.46 14.166 4.757 17.755a12.956 12.956 0 0 0 9.991 1.264l.537 1.926a14.955 14.955 0 0 1-11.528-1.457c-7.173-4.142-9.63-13.314-5.49-20.488 4.142-7.173 13.315-9.63 20.488-5.49 7.171 4.141 9.63 13.31 5.493 20.483l-1.12 1.995-1.744-.978 1.128-2.012c3.59-6.217 1.46-14.166-4.757-17.755Z"
        clip-rule="evenodd" />
    <path fill="#FF0000" fill-rule="evenodd"
        d="m27.738 21.71 1.932-.517 1.779 6.641 6.64-1.78.519 1.933-8.573 2.297-2.297-8.573Z"
        clip-rule="evenodd" />
    <path stroke="#FF0000" stroke-width="2"
        d="M23.76 33.483a13.956 13.956 0 0 1-10.759-1.36C6.306 28.256 4.012 19.695 7.878 13c3.865-6.695 12.426-8.989 19.121-5.123 6.695 3.865 8.989 12.426 5.124 19.12L31 29" />
    <path stroke="#FF0000" stroke-width="2" d="m28.704 21.452 2.038 7.607 7.607-2.038" />
</svg>