<svg width="40" height="40" viewBox="0 0 40 40" fill="none" xmlns="http://www.w3.org/2000/svg">
    <path fill-rule="evenodd" clip-rule="evenodd"
        d="M7.67532 11.5204H13.88V13.5204H4.71997V4.36035H6.71997V9.38671C8.54997 7.09691 10.9511 5.30716 13.7005 4.21024C17.2472 2.79526 21.167 2.61555 24.8282 3.70007C28.4895 4.78458 31.6791 7.07017 33.8829 10.1885C36.0867 13.3069 37.1765 17.0764 36.9767 20.8897C36.7768 24.703 35.299 28.338 32.7813 31.2089C30.2635 34.0798 26.8526 36.0195 23.098 36.7153C19.3434 37.4112 15.4639 36.8228 12.0846 35.0448C8.70521 33.2668 6.02286 30.4029 4.46973 26.9145L6.33336 26.0848C7.70012 29.1546 10.0606 31.6748 13.0344 33.2394C16.0082 34.804 19.4222 35.3219 22.7262 34.7095C26.0303 34.0971 29.0319 32.3902 31.2475 29.8638C33.4631 27.3374 34.7636 24.1386 34.9395 20.7829C35.1154 17.4272 34.1563 14.1101 32.2169 11.3659C30.2776 8.62175 27.4708 6.61043 24.2489 5.65606C21.0269 4.70168 17.5775 4.85983 14.4565 6.10501C11.7026 7.20368 9.34591 9.09217 7.67532 11.5204Z"
        fill="#FF0000" />
</svg>