<svg width="32" height="32" viewBox="0 0 32 32" fill="none" xmlns="http://www.w3.org/2000/svg">
    <g clip-path="url(#clip0_9132_809)">
        <path fill-rule="evenodd" clip-rule="evenodd"
            d="M3 16C3 8.832 8.832 3 16 3C23.168 3 29 8.832 29 16C29 23.168 23.168 29 16 29C8.832 29 3 23.168 3 16ZM5 16C5 22.065 9.935 27 16 27C18.5239 27 20.8521 26.1454 22.7104 24.7104L7.2896 9.2896C5.8546 11.1479 5 13.4761 5 16ZM24.1777 23.3492C25.9314 21.3998 27 18.8222 27 16C27 9.935 22.065 5 16 5C13.1778 5 10.6002 6.06858 8.65077 7.82235L24.1777 23.3492Z"
            fill="#FF0000" />
    </g>
    <defs>
        <clipPath id="clip0_9132_809">
            <rect width="32" height="32" fill="white" />
        </clipPath>
    </defs>
</svg>