<svg xmlns="http://www.w3.org/2000/svg" xmlns:xlink="http://www.w3.org/1999/xlink"
	xml:space="preserve" style="enable-background:new 0 0 32 32" viewBox="0 0 32 32">
	<style>.st0{clip-path:url(#SVGID_00000127751894139494451940000002374049276848581254_)}</style>
	<defs>
		<path id="SVGID_1_" d="M.9.5h32v32H.9z"/>
	</defs>
	<clipPath id="SVGID_00000139986306853885010290000017113105332469414589_">
		<use xlink:href="#SVGID_1_" style="overflow:visible"/>
	</clipPath>
	<g style="clip-path:url(#SVGID_00000139986306853885010290000017113105332469414589_)">
		<path d="M3 16C3 8.8 8.8 3 16 3s13 5.8 13 13-5.8 13-13 13S3 23.2 3 16zm2 0c0 6.1 4.9 11 11 11 2.5 0 4.9-.9 6.7-2.3L7.3 9.3C5.9 11.1 5 13.5 5 16zm19.2 7.3C26 21.4 27 18.8 27 16c0-6.1-4.9-11-11-11-2.8 0-5.4 1.1-7.3 2.8l15.5 15.5z" style="fill-rule:evenodd;clip-rule:evenodd;fill:#FF0000"/>
	</g>
</svg>