<?xml version="1.0" encoding="utf-8"?>
<!-- Generator: Adobe Illustrator 28.2.0, SVG Export Plug-In . SVG Version: 6.00 Build 0)  -->
<svg version="1.1" xmlns="http://www.w3.org/2000/svg"
	xmlns:xlink="http://www.w3.org/1999/xlink" x="0px" y="0px"
	width="32px" height="32px" viewBox="0 0 32 32" style="enable-background:new 0 0 32 32;"
	xml:space="preserve">
<style type="text/css">
		.st0{clip-path:url(#SVGID_00000127751894139494451940000002374049276848581254_);}
		.st1{fill-rule:evenodd;clip-rule:evenodd;fill:#FF0000;}
</style>
<g>
	<g>
		<defs>
			<rect id="SVGID_1_" x="0.9" y="0.5" width="32" height="32"/>
		</defs>
		<clipPath id="SVGID_00000139986306853885010290000017113105332469414589_">
			<use xlink:href="#SVGID_1_"  style="overflow:visible;"/>
		</clipPath>
		<g style="clip-path:url(#SVGID_00000139986306853885010290000017113105332469414589_);">
			<path class="st1" d="M3,16C3,8.8,8.8,3,16,3s13,5.8,13,13s-5.8,13-13,13S3,23.2,3,16z M5,16c0,6.1,4.9,11,11,11
				c2.5,0,4.9-0.9,6.7-2.3L7.3,9.3C5.9,11.1,5,13.5,5,16z M24.2,23.3C26,21.4,27,18.8,27,16c0-6.1-4.9-11-11-11
				c-2.8,0-5.4,1.1-7.3,2.8L24.2,23.3z"/>
		</g>
	</g>
</g>
</svg>