<svg width="32" height="32" viewBox="0 0 32 32" fill="none" xmlns="http://www.w3.org/2000/svg">
    <path fill-rule="evenodd" clip-rule="evenodd"
        d="M3.5 5C3.5 3.34315 4.84315 2 6.5 2H20.5C22.1569 2 23.5 3.34315 23.5 5V8.77778H21.5V5C21.5 4.44772 21.0523 4 20.5 4H6.5C5.94772 4 5.5 4.44772 5.5 5V27C5.5 27.5523 5.94772 28 6.5 28H20.5C21.0523 28 21.5 27.5523 21.5 27V23.2222H23.5V27C23.5 28.6568 22.1569 30 20.5 30H6.5C4.84315 30 3.5 28.6569 3.5 27V5Z"
        fill="#ff0000" />
    <path
        d="M11.5 17.5C11.5 18.3284 10.8284 19 10 19C9.17157 19 8.5 18.3284 8.5 17.5C8.5 16.6716 9.17157 16 10 16C10.8284 16 11.5 16.6716 11.5 17.5Z"
        fill="#ff0000" />
    <path
        d="M11.5 23.5C11.5 24.3284 10.8284 25 10 25C9.17157 25 8.5 24.3284 8.5 23.5C8.5 22.6716 9.17157 22 10 22C10.8284 22 11.5 22.6716 11.5 23.5Z"
        fill="#ff0000" />
    <path
        d="M18.5 17.5C18.5 18.3284 17.8284 19 17 19C16.1716 19 15.5 18.3284 15.5 17.5C15.5 16.6716 16.1716 16 17 16C17.8284 16 18.5 16.6716 18.5 17.5Z"
        fill="#ff0000" />
    <path
        d="M18.5 23.5C18.5 24.3284 17.8284 25 17 25C16.1716 25 15.5 24.3284 15.5 23.5C15.5 22.6716 16.1716 22 17 22C17.8284 22 18.5 22.6716 18.5 23.5Z"
        fill="#ff0000" />
    <path d="M8.5 9H18.5V12H8.5V9Z" fill="#ff0000" />
    <path fill-rule="evenodd" clip-rule="evenodd"
        d="M23.5 17V20H25.5V17L28.5 17V15L25.5 15V12H23.5V15L20.5 15V17L23.5 17Z" fill="#ff0000" />
</svg>