<svg width="32" height="32" viewBox="0 0 32 32" fill="none" xmlns="http://www.w3.org/2000/svg">
    <path fill-rule="evenodd" clip-rule="evenodd"
        d="M7.26488 5.0073C6.8298 5.00334 6.46289 5 5.91555 5H4.90809L5.01213 19.0006L11.0066 19.0006V22.0006L20.0048 22.0006L20.005 21.0008C20.005 20.6387 20.0081 20.258 20.0114 19.8627C20.0336 17.1762 20.0614 13.8119 19.1631 11.0171C18.6372 9.38071 17.7735 7.85849 16.3473 6.75108C14.9143 5.63832 13.0116 5.02059 10.5512 5.02059C9.02822 5.02059 8.21116 5.01546 7.60617 5.01033C7.48563 5.00931 7.37315 5.00829 7.26488 5.0073ZM7.58924 7.01026C8.20024 7.01544 9.02296 7.02059 10.5512 7.02059C12.6678 7.02059 14.1104 7.54621 15.1207 8.33076C16.1379 9.12065 16.8157 10.2497 17.2591 11.6291C18.0501 14.0901 18.0293 17.0888 18.0105 19.8113C18.0101 19.8745 18.0097 19.9377 18.0092 20.0006L13.0066 20.0006V17.0006L6.99732 17.0006L6.92304 7.00436C7.02784 7.00523 7.13336 7.00619 7.24385 7.0072C7.35279 7.00819 7.46656 7.00922 7.58924 7.01026Z"
        fill="#FF0000" />
    <path fill-rule="evenodd" clip-rule="evenodd"
        d="M13 17H5.46061L3 19.6021V25H5V20.3979L6.32195 19H11V22.0281H21V25H20.6691V27H23V20.0281H13V17Z"
        fill="#FF0000" />
    <path fill-rule="evenodd" clip-rule="evenodd"
        d="M5.5 28C4.67157 28 4 27.3284 4 26.5C4 25.6716 4.67157 25 5.5 25C6.32843 25 7 25.6716 7 26.5C7 27.3284 6.32843 28 5.5 28ZM5.5 30C3.567 30 2 28.433 2 26.5C2 24.567 3.567 23 5.5 23C7.433 23 9 24.567 9 26.5C9 28.433 7.433 30 5.5 30Z"
        fill="#FF0000" />
    <path fill-rule="evenodd" clip-rule="evenodd"
        d="M17.9434 28C17.1149 28 16.4434 27.3284 16.4434 26.5C16.4434 25.6716 17.1149 25 17.9434 25C18.7718 25 19.4434 25.6716 19.4434 26.5C19.4434 27.3284 18.7718 28 17.9434 28ZM17.9434 30C16.0104 30 14.4434 28.433 14.4434 26.5C14.4434 24.567 16.0104 23 17.9434 23C19.8764 23 21.4434 24.567 21.4434 26.5C21.4434 28.433 19.8764 30 17.9434 30Z"
        fill="#FF0000" />
    <path fill-rule="evenodd" clip-rule="evenodd" d="M22 25L22 2L24 2L24 25L22 25Z" fill="#FF0000" />
    <path fill-rule="evenodd" clip-rule="evenodd" d="M26 26V22H24V28H30V26H26Z" fill="#FF0000" />
    <path fill-rule="evenodd" clip-rule="evenodd" d="M8 27H15V25H8V27Z" fill="#FF0000" />
    <path fill-rule="evenodd" clip-rule="evenodd" d="M8 22H10V20H8V22Z" fill="#FF0000" />
</svg>