<svg width="32" height="32" viewBox="0 0 32 32" fill="none" xmlns="http://www.w3.org/2000/svg">
    <path
        d="M28 16C28 22.6274 22.6274 28 16 28C9.37258 28 4 22.6274 4 16C4 9.37258 9.37258 4 16 4C22.6274 4 28 9.37258 28 16Z"
        stroke="#FF0000" stroke-width="2" />
    <path
        d="M11.6201 12.7158C11.708 10.4697 13.2217 8.79004 16.0537 8.79004C18.6318 8.79004 20.3701 10.3232 20.3701 12.4424C20.3701 13.9463 19.6084 15.0107 18.3193 15.7822C17.0596 16.5244 16.6982 17.042 16.6982 18.0283V18.6143H14.6768L14.667 17.8721C14.6182 16.4658 15.2139 15.5869 16.5518 14.7861C17.7334 14.0732 18.1533 13.5166 18.1533 12.5303C18.1533 11.4561 17.2842 10.6748 15.9463 10.6748C14.5986 10.6748 13.7295 11.4658 13.6416 12.7158H11.6201Z"
        fill="#FF0000" />
    <circle cx="15.75" cy="22.1094" r="1.5" fill="#FF0000" />
</svg>