<?xml version="1.0" encoding="utf-8"?>
<!-- Generator: Adobe Illustrator 28.2.0, SVG Export Plug-In . SVG Version: 6.00 Build 0)  -->
<svg version="1.1" xmlns="http://www.w3.org/2000/svg"
	xmlns:xlink="http://www.w3.org/1999/xlink" x="0px" y="0px"
	width="32px" height="32px" viewBox="0 0 32 32" style="enable-background:new 0 0 32 32;"
	xml:space="preserve">
<style type="text/css">
		.st0{fill:#FF0000;}
</style>
<g>
	<path class="st0" d="M16,29C8.8,29,3,23.2,3,16S8.8,3,16,3c7.2,0,13,5.8,13,13S23.2,29,16,29z M16,5C9.9,5,5,9.9,5,16s4.9,11,11,11
		s11-4.9,11-11S22.1,5,16,5z"/>
</g>
<g>
	<path class="st0" d="M11.8,12.5c0.1-2.2,1.6-3.9,4.4-3.9c2.6,0,4.3,1.5,4.3,3.7c0,1.5-0.8,2.6-2.1,3.3c-1.3,0.7-1.6,1.3-1.6,2.2
		v0.6h-2l0-0.7c0-1.4,0.5-2.3,1.9-3.1c1.2-0.7,1.6-1.3,1.6-2.3c0-1.1-0.9-1.9-2.2-1.9c-1.3,0-2.2,0.8-2.3,2H11.8z"/>
	<circle class="st0" cx="15.9" cy="21.9" r="1.5"/>
</g>
</svg>