<svg width="33" height="32" viewBox="0 0 33 32" fill="none" xmlns="http://www.w3.org/2000/svg">
    <path fill-rule="evenodd" clip-rule="evenodd"
        d="M21.8794 4.92414L21.9611 4.00443L22.0429 4.0101L22.1241 4.01807L22.2046 4.02817L22.2849 4.0404L22.3646 4.05494L22.4432 4.07145L22.5213 4.09009L22.5991 4.11095L22.6762 4.13378L22.752 4.15858L22.8273 4.18535L22.9018 4.21409L22.9754 4.2448L23.0481 4.27741L23.1198 4.31173L23.1907 4.34811L23.2606 4.38622L23.3296 4.42621L23.3973 4.46768L23.464 4.51096L23.5297 4.55588L23.5943 4.60253L23.658 4.65089L23.7203 4.70082L23.7814 4.75207L23.8414 4.80512L23.9004 4.85989L23.958 4.9159L24.0141 4.9733L24.0693 5.03235L24.1229 5.09263L24.1753 5.15422L24.2266 5.2177L24.2763 5.28216L24.3244 5.34761L24.3714 5.41487L24.4171 5.48352L24.461 5.55316L24.5035 5.62395L24.5445 5.69597L24.5841 5.76931L24.6219 5.84371L24.6583 5.91926L24.6931 5.99596L24.7261 6.07349L24.7575 6.15224L24.7872 6.23198L24.8152 6.3127L24.8414 6.3945L24.8658 6.47703L24.8884 6.56022L24.9093 6.64472L24.9282 6.72988L24.9452 6.81545L24.9603 6.90201L24.9735 6.98955L24.9847 7.07742L24.9939 7.16562L25.0012 7.25464L25.0063 7.34448L25.0094 7.43432L25.0104 7.51677V24.4832L25.0094 24.5657L25.0063 24.6555L25.0012 24.7453L24.9939 24.8343L24.9847 24.9227L24.9735 25.0105L24.9604 25.0978L24.9452 25.1845L24.9282 25.2701L24.9092 25.3553L24.8884 25.4396L24.8658 25.523L24.8414 25.6055L24.8152 25.6871L24.7872 25.7679L24.7575 25.8478L24.7261 25.9264L24.693 26.0041L24.6583 26.0807L24.622 26.1561L24.584 26.2309L24.5445 26.304L24.5036 26.3759L24.461 26.447L24.4169 26.5166L24.3716 26.5849L24.3245 26.6521L24.2762 26.718L24.2266 26.7822L24.1754 26.8456L24.1229 26.9074L24.0693 26.9677L24.0141 27.0267L23.9577 27.0843L23.9002 27.1403L23.8416 27.1946L23.7815 27.2477L23.7203 27.2992L23.658 27.3491L23.5943 27.3975L23.5297 27.4441L23.464 27.489L23.3973 27.5323L23.3294 27.574L23.2604 27.6139L23.1907 27.6519L23.12 27.688L23.0481 27.7226L22.9754 27.7551L22.9018 27.7859L22.8273 27.8147L22.7523 27.8413L22.6759 27.8663L22.5991 27.8891L22.5216 27.9098L22.4432 27.9286L22.3643 27.9451L22.2849 27.9595L22.2049 27.9718L22.1241 27.9819L22.0429 27.9899L21.9611 27.9956L21.8791 27.9989L21.8039 28H10.2168L10.1418 27.9989L10.0596 27.9956L9.97793 27.9899L9.89662 27.9819L9.81583 27.9718L9.7358 27.9595L9.65643 27.9451L9.57767 27.9286L9.49912 27.9098L9.42163 27.8891L9.34481 27.8663L9.26844 27.8413L9.1935 27.8147L9.11907 27.7859L9.04532 27.7551L8.97262 27.7226L8.90082 27.6881L8.83007 27.6519L8.76044 27.6139L8.6914 27.574L8.62335 27.5322L8.55671 27.489L8.49105 27.4441L8.42651 27.3975L8.36279 27.3491L8.30042 27.2991L8.23925 27.2477L8.1792 27.1946L8.12065 27.1404L8.063 27.0843L8.00655 27.0266L7.95152 26.9677L7.89783 26.9074L7.84527 26.8455L7.79421 26.7824L7.74472 26.7181L7.69613 26.6521L7.64918 26.5847L7.60381 26.5166L7.55986 26.447L7.51726 26.376L7.47631 26.304L7.43677 26.2307L7.39874 26.1561L7.3625 26.0808L7.32783 26.0043L7.29467 25.9264L7.26322 25.8476L7.23357 25.7679L7.20557 25.6871L7.17944 25.6057L7.15495 25.5231L7.13227 25.4395L7.11153 25.3553L7.09259 25.2704L7.07551 25.1843L7.06039 25.0977L7.04729 25.0106L7.03606 24.9228L7.02685 24.8341L7.01966 24.7451L7.01449 24.6557L7.01135 24.5657L7.01038 24.4831V7.51693L7.01135 7.43432L7.01449 7.34431L7.01966 7.2548L7.02685 7.16578L7.03606 7.07726L7.04729 6.98939L7.06047 6.90217L7.07559 6.81562L7.09259 6.72972L7.11153 6.64472L7.13234 6.56038L7.15495 6.47687L7.17944 6.39433L7.20564 6.3127L7.23357 6.23214L7.26322 6.1524L7.29467 6.07349L7.32776 5.9958L7.3625 5.91918L7.39881 5.84371L7.4367 5.76939L7.47631 5.69597L7.51733 5.62379L7.55971 5.55316L7.60374 5.48352L7.64926 5.41504L7.69628 5.34778L7.74457 5.28208L7.79421 5.21762L7.84542 5.1543L7.89783 5.09263L7.95152 5.03227L8.00655 4.97339L8.06278 4.9159L8.12043 4.85981L8.17943 4.80512L8.23948 4.75207L8.30042 4.70082L8.36279 4.65089L8.42651 4.60253L8.49105 4.55588L8.55671 4.51096L8.62335 4.46776L8.69118 4.42613L8.76014 4.38622L8.83007 4.34811L8.90112 4.31173L8.97262 4.27741L9.04532 4.2448L9.11907 4.21409L9.1935 4.18535L9.26874 4.15858L9.34451 4.13378L9.42163 4.11095L9.49942 4.09009L9.57767 4.07145L9.65613 4.05494L9.7358 4.0404L9.81613 4.02817L9.89662 4.01807L9.97793 4.0101L10.0596 4.00443L10.1414 4.00107L10.2165 4H21.8042L21.8794 4.00107V4.92414ZM9.96029 6.00155L9.90915 6.00586L9.85894 6.01292L9.80951 6.02273L9.76155 6.03505L9.71437 6.04995L9.6682 6.06726L9.62319 6.08698L9.57896 6.10911L9.53605 6.13348L9.49399 6.16034L9.45317 6.18945L9.4139 6.22037L9.37564 6.25369L9.33925 6.28874L9.3041 6.32594L9.27057 6.36495L9.23891 6.40551L9.19491 6.46924L9.15487 6.53675L9.11948 6.60693L9.08883 6.67978L9.06291 6.75557L9.04196 6.8335L9.02621 6.91402L9.01573 6.9972L9.01084 7.08314L9.01038 24.8793L9.01177 24.9457L9.0186 25.0306L9.03086 25.113L9.0484 25.1929L9.07098 25.27L9.09845 25.3447L9.13089 25.417L9.16775 25.4862L9.20919 25.5525L9.25459 25.6151L9.2871 25.6548L9.32148 25.6929L9.3571 25.7288L9.39466 25.7633L9.43346 25.7954L9.47342 25.8254L9.51494 25.8533L9.55708 25.8788L9.601 25.9023L9.64554 25.9232L9.69117 25.9417L9.73781 25.9578L9.78553 25.9714L9.83411 25.9824L9.88401 25.9909L9.93453 25.9966L9.98629 25.9995L22.0005 26L22.0605 25.9984L22.1116 25.9941L22.1619 25.987L22.2112 25.9772L22.2592 25.965L22.3061 25.9501L22.3526 25.9327L22.3976 25.913L22.4418 25.8908L22.4849 25.8664L22.5268 25.8397L22.5677 25.8105L22.6069 25.7795L22.645 25.7464L22.6817 25.7111L22.7166 25.6741L22.7501 25.6351L22.7819 25.5944L22.826 25.5305L22.8659 25.4633L22.9013 25.3932L22.932 25.32L22.9578 25.2445L22.9788 25.1663L22.9946 25.0858L23.0051 25.0026L23.01 24.9169L23.0104 7.12086L23.009 7.05412L23.0022 6.96913L22.99 6.88715L22.9724 6.80741L22.9498 6.73008L22.9223 6.65533L22.8899 6.58316L22.8531 6.51393L22.8118 6.44779L22.7818 6.40534L22.7503 6.36504L22.7166 6.32586L22.6815 6.28874L22.6451 6.25369L22.6069 6.22045L22.5677 6.18945L22.5268 6.16034L22.4846 6.13348L22.4418 6.10911L22.3976 6.08698L22.3526 6.06726L22.3065 6.04995L22.2592 6.03505L22.2112 6.02273L22.1619 6.01292L22.1116 6.00586L22.0605 6.00155L22.0002 6H10.0206L9.96029 6.00155Z"
        fill="#ff0000" />
    <path fill-rule="evenodd" clip-rule="evenodd"
        d="M15.0104 16C15.0104 17.1049 14.1153 18 13.0104 18C11.9054 18 11.0104 17.1049 11.0104 16C11.0104 14.8951 11.9054 14 13.0104 14C14.1153 14 15.0104 14.8951 15.0104 16Z"
        fill="#ff0000" />
    <path fill-rule="evenodd" clip-rule="evenodd"
        d="M19.1316 18.0502C18.0273 18.0888 17.1016 17.2255 17.063 16.1212C17.0245 15.017 17.8877 14.0912 18.992 14.0527C20.0963 14.0141 21.022 14.8774 21.0606 15.9816C21.0992 17.0859 20.2359 18.0117 19.1316 18.0502Z"
        fill="#ff0000" />
    <path fill-rule="evenodd" clip-rule="evenodd"
        d="M15.0104 21C15.0104 22.1049 14.1153 23 13.0104 23C11.9054 23 11.0104 22.1049 11.0104 21C11.0104 19.8951 11.9054 19 13.0104 19C14.1153 19 15.0104 19.8951 15.0104 21Z"
        fill="#ff0000" />
    <path fill-rule="evenodd" clip-rule="evenodd"
        d="M21.0104 21C21.0104 22.1049 20.1153 23 19.0104 23C17.9054 23 17.0104 22.1049 17.0104 21C17.0104 19.8951 17.9054 19 19.0104 19C20.1153 19 21.0104 19.8951 21.0104 21Z"
        fill="#ff0000" />
    <path fill-rule="evenodd" clip-rule="evenodd" d="M11.0104 11H21.0104V9H11.0104V11Z"
        fill="#ff0000" />
</svg>