<svg width="32" height="32" viewBox="0 0 32 32" fill="none" xmlns="http://www.w3.org/2000/svg">
    <path fill-rule="evenodd" clip-rule="evenodd"
        d="M23 4H9C8.44772 4 8 4.44772 8 5V27C8 27.5523 8.44772 28 9 28H23C23.5523 28 24 27.5523 24 27V5C24 4.44771 23.5523 4 23 4ZM9 2C7.34315 2 6 3.34315 6 5V27C6 28.6569 7.34315 30 9 30H23C24.6569 30 26 28.6569 26 27V5C26 3.34315 24.6569 2 23 2H9Z"
        fill="#ff0000" />
    <path
        d="M14 17.5C14 18.3284 13.3284 19 12.5 19C11.6716 19 11 18.3284 11 17.5C11 16.6716 11.6716 16 12.5 16C13.3284 16 14 16.6716 14 17.5Z"
        fill="#ff0000" />
    <path
        d="M14 23.5C14 24.3284 13.3284 25 12.5 25C11.6716 25 11 24.3284 11 23.5C11 22.6716 11.6716 22 12.5 22C13.3284 22 14 22.6716 14 23.5Z"
        fill="#ff0000" />
    <path
        d="M21 17.5C21 18.3284 20.3284 19 19.5 19C18.6716 19 18 18.3284 18 17.5C18 16.6716 18.6716 16 19.5 16C20.3284 16 21 16.6716 21 17.5Z"
        fill="#ff0000" />
    <path
        d="M21 23.5C21 24.3284 20.3284 25 19.5 25C18.6716 25 18 24.3284 18 23.5C18 22.6716 18.6716 22 19.5 22C20.3284 22 21 22.6716 21 23.5Z"
        fill="#ff0000" />
    <path d="M11 9H21V12H11V9Z" fill="#ff0000" />
</svg>