<svg width="32" height="32" viewBox="0 0 32 32" fill="none" xmlns="http://www.w3.org/2000/svg">
    <path fill-rule="evenodd" clip-rule="evenodd"
        d="M7.39268 9.27992H11.3201V11.2799H4.08008V4.03992H6.08008V7.59797C7.44736 5.98369 9.19618 4.71807 11.1828 3.92548C13.895 2.84343 16.8925 2.70601 19.6923 3.53534C22.4921 4.36468 24.9311 6.11248 26.6164 8.49711C28.3017 10.8817 29.1351 13.7643 28.9823 16.6804C28.8294 19.5964 27.6993 22.3761 25.774 24.5715C23.8487 26.7669 21.2403 28.2502 18.3691 28.7823C15.498 29.3145 12.5313 28.8645 9.94709 27.5048C7.36289 26.1452 5.31168 23.9552 4.12399 21.2876L6.02416 20.4416C7.02182 22.6824 8.74484 24.522 10.9156 25.6641C13.0863 26.8061 15.5783 27.1841 17.9901 26.7371C20.4019 26.2901 22.5929 25.0442 24.2102 23.2001C25.8274 21.3559 26.7767 19.021 26.9051 16.5715C27.0335 14.122 26.3334 11.7007 24.9178 9.69757C23.5022 7.69448 21.4533 6.22633 19.1015 5.52969C16.7497 4.83305 14.2318 4.94849 11.9536 5.8574C10.1487 6.57749 8.57747 7.76238 7.39268 9.27992Z"
        fill="#FF0000" />
</svg>