<?xml version="1.0" encoding="utf-8"?>
<!-- Generator: Adobe Illustrator 28.2.0, SVG Export Plug-In . SVG Version: 6.00 Build 0)  -->
<svg version="1.1" xmlns="http://www.w3.org/2000/svg"
	xmlns:xlink="http://www.w3.org/1999/xlink" x="0px" y="0px"
	width="20px" height="20px" viewBox="0 0 20 20" style="enable-background:new 0 0 20 20;"
	xml:space="preserve">
<style type="text/css">
		.st0{clip-path:url(#SVGID_00000089568986035583371990000010643173400751809710_);}
		.st1{fill-rule:evenodd;clip-rule:evenodd;fill:#FF0000;}
</style>
<g>
	<g>
		<defs>
			<rect id="SVGID_1_" width="20" height="20"/>
		</defs>
		<clipPath id="SVGID_00000155860896928774593580000005954237913434116495_">
			<use xlink:href="#SVGID_1_"  style="overflow:visible;"/>
		</clipPath>
		<g style="clip-path:url(#SVGID_00000155860896928774593580000005954237913434116495_);">
			<path class="st1" d="M1,10c0-5,4-9,9-9s9,4,9,9s-4,9-9,9S1,15,1,10z M3,10c0,3.9,3.1,7,7,7c1.7,0,3.2-0.6,4.4-1.6L4.6,5.6
				C3.6,6.8,3,8.3,3,10z M15.8,13.9c0.8-1.1,1.2-2.5,1.2-3.9c0-3.9-3.1-7-7-7C8.5,3,7.2,3.5,6.1,4.2L15.8,13.9z"/>
		</g>
	</g>
</g>
</svg>