<svg xmlns="http://www.w3.org/2000/svg" fill="none" viewBox="0 0 20 20">
    <g clip-path="url(#a)">
        <path fill="#FF0000" fill-rule="evenodd"
            d="M1 10c0-4.962 4.038-9 9-9s9 4.038 9 9-4.038 9-9 9-9-4.038-9-9Zm2 0c0 3.86 3.14 7 7 7a6.968 6.968 0 0 0 4.422-1.578L4.578 5.578A6.968 6.968 0 0 0 3 10Zm12.777 3.949A6.961 6.961 0 0 0 17 10c0-3.86-3.14-7-7-7a6.96 6.96 0 0 0-3.949 1.223l9.726 9.726Z"
            clip-rule="evenodd" />
    </g>
    <defs>
        <clipPath id="a">
            <path fill="#fff" d="M0 0h20v20H0z" />
        </clipPath>
    </defs>
</svg>