<?xml version="1.0" encoding="utf-8"?>
<!-- Generator: Adobe Illustrator 28.2.0, SVG Export Plug-In . SVG Version: 6.00 Build 0)  -->
<svg version="1.1" xmlns="http://www.w3.org/2000/svg"
	xmlns:xlink="http://www.w3.org/1999/xlink" x="0px" y="0px"
	width="20px" height="20px" viewBox="0 0 20 20" style="enable-background:new 0 0 20 20;"
	xml:space="preserve">
<style type="text/css">
	.st0{fill:#FF0000;}
</style>
<g>
	<path class="st0" d="M10,19c-5,0-9-4-9-9s4-9,9-9s9,4,9,9S15,19,10,19z M10,3c-3.9,0-7,3.1-7,7s3.1,7,7,7s7-3.1,7-7S13.9,3,10,3z"
		/>
</g>
<g>
	<circle class="st0" cx="9.8" cy="13.9" r="1"/>
</g>
<g>
	<path class="st0" d="M6.5,7.9C6.6,6.2,7.8,5,10,5c2.1,0,3.5,1.1,3.5,2.6c0,1.1-0.6,1.8-1.6,2.4c-1,0.5-1.3,0.9-1.3,1.6V12H8.9v-0.5
		c-0.1-1,0.4-1.7,1.4-2.2c0.9-0.5,1.3-0.9,1.3-1.6S11,6.5,10,6.5S8.3,7,8.3,7.9H6.5z"/>
</g>
</svg>