<svg width="20" height="20" viewBox="0 0 20 20" fill="none" xmlns="http://www.w3.org/2000/svg">
<path d="M18 10C18 14.4183 14.4183 18 10 18C5.58172 18 2 14.4183 2 10C2 5.58172 5.58172 2 10 2C14.4183 2 18 5.58172 18 10Z" stroke="#FF0000" stroke-width="2"/>
<circle cx="9.77998" cy="13.9475" r="1.05" fill="#FF0000"/>
<path d="M6.5 7.85159C6.56054 6.1992 7.79405 5 10.0416 5C12.1151 5 13.5 6.10159 13.5 7.64243C13.5 8.70916 12.9249 9.45518 11.8957 10.0199C10.9043 10.5568 10.6243 10.9124 10.6243 11.6026V12H8.86865L8.86108 11.5259C8.79297 10.4801 9.23189 9.85259 10.2762 9.28785C11.2146 8.76494 11.5324 8.39542 11.5324 7.70518C11.5324 6.98008 10.8968 6.45717 9.94324 6.45717C8.96703 6.45717 8.33892 7.001 8.27838 7.85159H6.5Z" fill="#FF0000"/>
</svg>
