<svg width="20" height="20" viewBox="0 0 20 20" fill="none" xmlns="http://www.w3.org/2000/svg">
    <path fill-rule="evenodd" clip-rule="evenodd"
        d="M5 5.23193V3H3V8.56915H8.56915V6.56915H6.52914C7.01883 6.05593 7.61598 5.65006 8.28333 5.38382C9.32021 4.97014 10.4662 4.91761 11.5366 5.23467C12.6069 5.55173 13.5394 6.21992 14.1837 7.13159C14.828 8.04325 15.1466 9.14528 15.0882 10.2601C15.0298 11.3749 14.5977 12.4376 13.8616 13.2769C13.1256 14.1163 12.1284 14.6833 11.0307 14.8868C9.93306 15.0902 8.79887 14.9182 7.81091 14.3984C6.82294 13.8786 6.03875 13.0413 5.58468 12.0215L3.73019 12.8472C4.36972 14.2836 5.47422 15.4628 6.86571 16.1949C8.25721 16.927 9.85466 17.1693 11.4007 16.8828C12.9467 16.5962 14.3512 15.7976 15.3879 14.6154C16.4246 13.4333 17.0331 11.9365 17.1154 10.3663C17.1977 8.79617 16.749 7.24401 15.8415 5.95998C14.934 4.67595 13.6207 3.73483 12.1131 3.28826C10.6055 2.8417 8.99149 2.9157 7.53109 3.49834C6.56354 3.88435 5.70076 4.47873 5 5.23193Z"
        fill="#FF0000" />
</svg>