<?xml version="1.0" encoding="utf-8"?>
<!-- Generator: Adobe Illustrator 28.2.0, SVG Export Plug-In . SVG Version: 6.00 Build 0)  -->
<svg version="1.1" xmlns="http://www.w3.org/2000/svg"
	xmlns:xlink="http://www.w3.org/1999/xlink" x="0px" y="0px"
	width="20px" height="20px" viewBox="0 0 20 20" style="enable-background:new 0 0 20 20;"
	xml:space="preserve">
<style type="text/css">
		.st0{fill-rule:evenodd;clip-rule:evenodd;fill:#FF0000;}
</style>
<path class="st0" d="M10.8,7.8c-0.9,0-1.5-0.1-2.3-0.3c-1.2-0.4-2.1-1-2.7-2.2l1.8-0.9c0.5,1,1.6,1.3,3.2,1.3h7.1l0.3,0.6
	c0.5,1.1,0.7,2.3,0.7,3.6c0,5-4,9-9,9c-5,0-9-4-9-9c0-5,4-9,9-9c2.3,0,4.5,0.9,6.1,2.4l-1.4,1.5C13.4,3.7,11.8,3,10,3
	c-3.9,0-7,3.1-7,7s3.1,7,7,7c3.9,0,7-3.1,7-7c0-0.7-0.1-1.5-0.3-2.2H10.8z"/>
<path class="st0" d="M14.9,10.5h-1.5c0-0.3-0.3-0.6-0.6-0.6c-0.3,0-0.6,0.3-0.6,0.6h-1.5c0-1.2,1-2.1,2.1-2.1S14.9,9.3,14.9,10.5z"
	/>
<path class="st0" d="M9.4,10.5H7.9c0-0.3-0.3-0.6-0.6-0.6c-0.3,0-0.6,0.3-0.6,0.6H5.2c0-1.2,1-2.1,2.1-2.1C8.4,8.4,9.4,9.3,9.4,10.5
	z"/>
<path class="st0" d="M5.9,14.1l1.4-1.4C8,13.4,9,13.8,10,13.8c1,0,2-0.4,2.7-1.1l1.4,1.4c-1.1,1.1-2.5,1.7-4.1,1.7
	C8.5,15.8,7,15.1,5.9,14.1z"/>
</svg>