<?xml version="1.0" encoding="utf-8"?>
<svg version="1.1" xmlns="http://www.w3.org/2000/svg" xmlns:xlink="http://www.w3.org/1999/xlink"
	x="0px" y="0px"
	width="70px" height="70px" viewBox="0 0 70 70" style="enable-background:new 0 0 70 70;"
	xml:space="preserve">
<style type="text/css">
	.st0{fill-rule:evenodd;clip-rule:evenodd;fill:#005AA0;}
	.st1{fill-rule:evenodd;clip-rule:evenodd;fill:#E30613;}
</style>
<path class="st0" d="M15.9,15c-1,0-1.8,0-2.9,0h-1l0,26h13v5l17,0l0-1c0-0.8,0-1.5,0-2.3c0-5.5,0.1-11.9-1.8-17
	c-1.1-3-2.8-5.7-5.6-7.6c-2.8-1.9-6.6-3-11.5-3c-3.2,0-5,0-6.4,0C16.4,15,16.2,15,15.9,15z M16.7,17c1.3,0,3.1,0,6.4,0
	c4.7,0,8,1,10.4,2.6c2.4,1.6,3.9,3.9,4.9,6.6c1.7,4.8,1.7,10.8,1.7,16.3c0,0.5,0,0.9,0,1.4l-13,0v-5H14l0-22c0.7,0,1.2,0,1.9,0
	C16.1,17,16.4,17,16.7,17z"/>
<path class="st0" d="M27,39l-14.2,0L9,42.8V52h2v-8.4l2.6-2.6L25,41v5l22,0v9h-4v2h6V44l-22,0V39z"/>
<path class="st0" d="M13,62c-2.8,0-5-2.2-5-5s2.2-5,5-5s5,2.2,5,5S15.8,62,13,62z M13,64c-3.9,0-7-3.1-7-7s3.1-7,7-7
	c3.9,0,7,3.1,7,7S16.9,64,13,64z"/>
<path class="st0" d="M37,62c-2.8,0-5-2.2-5-5s2.2-5,5-5s5,2.2,5,5S39.8,62,37,62z M37,64c-3.9,0-7-3.1-7-7s3.1-7,7-7s7,3.1,7,7
	S40.9,64,37,64z"/>
<path class="st0" d="M37,58c-0.6,0-1-0.4-1-1s0.4-1,1-1s1,0.4,1,1S37.6,58,37,58z M37,60c-1.7,0-3-1.3-3-3s1.3-3,3-3s3,1.3,3,3
	S38.7,60,37,60z"/>
<path class="st0" d="M13,58c-0.6,0-1-0.4-1-1s0.4-1,1-1s1,0.4,1,1S13.6,58,13,58z M13,60c-1.7,0-3-1.3-3-3s1.3-3,3-3s3,1.3,3,3
	S14.7,60,13,60z"/>
<path class="st0" d="M53,57V47h-2v12h13v-2H53z"/>
<path class="st0" d="M34.8,37.6l1.8-1.9l-1.4-1.4l-4.9,5.1l1.4,1.4l1.7-1.8l5.9,5.7l1.4-1.4L34.8,37.6z"/>
<path class="st0" d="M19,57h12v-2H19V57z"/>
<path class="st1" d="M18,46h4v-2h-4V46z"/>
<path class="st0" d="M51,53V6h-2v47H51z"/>
</svg>